<?xml version="1.0" encoding="iso-8859-1"?>
<!-- Generator: Adobe Illustrator 24.1.2, SVG Export Plug-In . SVG Version: 6.00 Build 0)  -->
<svg version="1.1" baseProfile="basic" id="Layer_1"
	 xmlns="http://www.w3.org/2000/svg" xmlns:xlink="http://www.w3.org/1999/xlink" x="0px" y="0px" viewBox="0 0 24 24"
	 xml:space="preserve">
<polygon points="10,9 15,12 10,15 "/>
<path style="fill:none;stroke:#000000;stroke-width:2;stroke-miterlimit:10;" d="M8.113,22c-2.469,0-4.477-2.009-4.477-4.478
	c0-1.371,0.616-2.635,1.655-3.477c-1.02-0.826-1.655-2.085-1.655-3.478c0-1.667,0.918-3.186,2.396-3.962l7.73-4.07
	C14.403,2.188,15.142,2,15.887,2c2.469,0,4.477,2.009,4.477,4.478c0,1.371-0.616,2.635-1.655,3.477
	c1.02,0.826,1.655,2.085,1.655,3.478c0,1.71-0.996,3.294-2.538,4.035l-7.589,3.997C9.603,21.812,8.863,22,8.113,22z"/>
</svg>